<svg width="319" height="319" viewBox="0 0 319 319" fill="none" xmlns="http://www.w3.org/2000/svg">
<path d="M159.068 0C71.3725 0 0 71.3528 0 159.068C0 246.783 71.3529 318.136 159.068 318.136C246.783 318.136 318.136 246.783 318.136 159.068C318.136 71.3528 246.783 0 159.068 0ZM246.04 150.818C245.571 133.42 243.655 116.862 240.488 101.497C272.783 112.894 295.557 130.703 300.523 150.818H246.06H246.04ZM229.561 150.818H167.318V88.5751C186.808 89.1616 205.34 91.7617 222.132 96.0038C226.374 112.796 228.974 131.328 229.561 150.818ZM167.318 72.0761V17.6132C187.433 22.5786 205.242 45.353 216.639 77.6475C201.274 74.461 184.716 72.5646 167.318 72.0955V72.0761ZM150.818 17.6132V72.0761C133.42 72.5453 116.862 74.461 101.497 77.6279C112.894 45.3334 130.703 22.5592 150.818 17.5939V17.6132ZM150.818 88.5556V150.799H88.5752C89.1617 131.309 91.7618 112.777 96.0038 95.9842C112.796 91.7421 131.328 89.142 150.818 88.5556ZM72.0761 150.818H17.6134C22.5788 130.703 45.3531 112.894 77.6476 101.497C74.4611 116.862 72.5648 133.42 72.0957 150.818H72.0761ZM72.0761 167.298C72.5453 184.696 74.4611 201.254 77.628 216.619C45.3335 205.222 22.5592 187.414 17.5938 167.298H72.0567H72.0761ZM88.5752 167.298H150.818V229.541C131.328 228.955 112.796 226.355 96.0038 222.113C91.7618 205.32 89.1617 186.788 88.5752 167.298ZM150.818 246.04V300.503C130.703 295.538 112.894 272.763 101.497 240.469C116.862 243.655 133.42 245.551 150.818 246.021V246.04ZM167.318 300.503V246.04C184.716 245.571 201.274 243.655 216.639 240.488C205.242 272.783 187.433 295.557 167.318 300.523V300.503ZM167.318 229.561V167.317H229.561C228.974 186.808 226.374 205.34 222.132 222.132C205.34 226.374 186.808 228.974 167.318 229.561ZM246.04 167.298H300.503C295.538 187.414 272.763 205.222 240.469 216.619C243.655 201.254 245.552 184.696 246.021 167.298H246.04ZM293.446 111.936C279.156 99.5419 259.412 89.3377 235.777 82.3392C228.779 58.7048 218.574 38.9606 206.18 24.6705C246.881 38.9997 279.117 71.2353 293.446 111.936ZM111.936 24.6705C99.5422 38.9606 89.3378 58.7048 82.3393 82.3392C58.7049 89.3377 38.9606 99.5419 24.6705 111.936C38.9997 71.2353 71.2357 38.9997 111.936 24.6705ZM24.6705 206.18C38.9606 218.574 58.7049 228.779 82.3393 235.777C89.3378 259.412 99.5422 279.156 111.936 293.446C71.2357 279.117 38.9997 246.881 24.6705 206.18ZM206.2 293.446C218.594 279.156 228.798 259.412 235.797 235.777C259.431 228.779 279.175 218.574 293.465 206.18C279.136 246.881 246.9 279.117 206.2 293.446Z" fill="#D7D7C9"/>
</svg>
